<svg xmlns="http://www.w3.org/2000/svg" xmlns:xlink="http://www.w3.org/1999/xlink" version="1.1" x="0px" y="0px" viewBox="0 0 90 90" enable-background="new 0 0 90 90" xml:space="preserve"><path d="M86.184,57.742c-2.549,0-4.984-1.527-6.686-4.19c-0.354-0.555-1.275-0.557-1.631,0.002  c-1.695,2.661-4.131,4.188-6.684,4.188c-2.551,0-4.986-1.527-6.684-4.187c-0.176-0.28-0.484-0.447-0.814-0.447  s-0.639,0.167-0.816,0.445c-2.17,3.402-5.652,4.852-8.771,3.816l4.449-7.038c2.625-4.147,2.441-9.365-0.375-13.289l6.486-10.249  c1.344,0.224,2.725-0.342,3.477-1.541c1.016-1.604,0.537-3.73-1.064-4.742l-7.957-5.029c-1.602-1.012-3.727-0.533-4.742,1.068  c-0.76,1.21-0.678,2.71,0.098,3.813L47.99,30.607c-4.751-0.864-9.537,1.21-12.16,5.355L22.942,56.346  c-0.014,0.009-0.028,0.009-0.042,0.019c-3.535,2.533-8.115,1.351-10.769-2.811c-0.355-0.557-1.276-0.557-1.63,0  c-1.696,2.661-4.135,4.188-6.685,4.188c-0.537,0-0.969,0.432-0.969,0.967s0.432,0.967,0.969,0.967c2.82,0,5.496-1.416,7.499-3.936  c2.004,2.52,4.68,3.936,7.5,3.936c0.751,0,1.496-0.126,2.228-0.327l-5.387,8.52c-2.271,3.595,2.357,9.231,7.863,12.713  c5.504,3.482,12.581,5.241,14.855,1.652l14.652-23.17c3.678,1.467,7.887,0.157,10.658-3.323c2.002,2.52,4.676,3.936,7.498,3.936  s5.496-1.418,7.5-3.938c2.006,2.52,4.678,3.938,7.5,3.938c0.535,0,0.969-0.432,0.969-0.967S86.719,57.742,86.184,57.742z   M43.233,38.741l9.441,5.967l-9.018,10.071l-2.189-0.1l-3.324-2.103c-0.19-0.119-0.394-0.206-0.592-0.294L43.233,38.741z   M33.16,75.568l-9.439-5.967l9.667-10.747c0.163,0.145,0.333,0.286,0.525,0.409l3.545,2.245l0.984,1.393L33.16,75.568z   M43.76,59.709l-1.591-0.068l0.934,1.327c0.31,0.439,0.206,1.041-0.233,1.348c-0.331,0.231-0.755,0.233-1.076,0.027  c-0.103-0.064-0.196-0.153-0.271-0.263l-1.965-2.781l-4.047-2.561c-0.453-0.284-0.587-0.88-0.303-1.333  c0.286-0.453,0.883-0.585,1.334-0.299l3.998,2.528l3.302,0.141c0.531,0.029,0.947,0.477,0.926,1.014  C44.745,59.317,44.29,59.732,43.76,59.709z"></path><polygon points="73.654,11.785 64.176,5.793 60.709,12.919 68.701,17.974 "></polygon></svg>