<?xml version="1.0" encoding="utf-8"?>
<!-- Generator: Adobe Illustrator 16.0.0, SVG Export Plug-In . SVG Version: 6.00 Build 0)  -->
<!DOCTYPE svg PUBLIC "-//W3C//DTD SVG 1.1//EN" "http://www.w3.org/Graphics/SVG/1.1/DTD/svg11.dtd">
<svg version="1.1" id="Layer_1" xmlns="http://www.w3.org/2000/svg" xmlns:xlink="http://www.w3.org/1999/xlink" x="0px" y="0px"
	 width="1070.897px" height="232.43px" viewBox="0 0 1070.897 232.43" enable-background="new 0 0 1070.897 232.43"
	 xml:space="preserve">
<g>
	
		<linearGradient id="SVGID_1_" gradientUnits="userSpaceOnUse" x1="-681.4072" y1="-2308.2661" x2="-668.4053" y2="-2308.2661" gradientTransform="matrix(0 -1 1 0 2327.9038 -545.8623)">
		<stop  offset="0" style="stop-color:#FF8A15"/>
		<stop  offset="1" style="stop-color:#FF8700"/>
	</linearGradient>
	<path fill="url(#SVGID_1_)" d="M32.775,122.543c3.591,0,6.5,2.91,6.5,6.501l0,0c0,3.591-2.909,6.501-6.5,6.501H6.501
		c-3.592,0.001-6.502-2.91-6.501-6.502l0,0c-0.001-3.59,2.909-6.5,6.501-6.5H32.775z"/>
	
		<linearGradient id="SVGID_2_" gradientUnits="userSpaceOnUse" x1="-761.5576" y1="-977.8101" x2="-748.5542" y2="-977.8101" gradientTransform="matrix(0.7071 -0.7071 0.7071 0.7071 1277.0046 209.1938)">
		<stop  offset="0" style="stop-color:#FF8A15"/>
		<stop  offset="1" style="stop-color:#FF8700"/>
	</linearGradient>
	<path fill="url(#SVGID_2_)" d="M65.569,56.375c2.539,2.539,2.539,6.655-0.001,9.194l0,0c-2.538,2.539-6.655,2.54-9.194,0
		L37.795,46.99c-2.539-2.538-2.539-6.655,0.001-9.194l0,0c2.538-2.539,6.654-2.539,9.193,0L65.569,56.375z"/>
	<g>
		<linearGradient id="SVGID_3_" gradientUnits="userSpaceOnUse" x1="122.542" y1="19.6382" x2="135.5459" y2="19.6382">
			<stop  offset="0" style="stop-color:#FF8A15"/>
			<stop  offset="1" style="stop-color:#FF8700"/>
		</linearGradient>
		<path fill="url(#SVGID_3_)" d="M135.546,32.775c0,3.591-2.91,6.501-6.502,6.501l0,0c-3.591,0-6.502-2.911-6.502-6.501V6.501
			c0-3.591,2.911-6.501,6.502-6.501l0,0c3.592,0,6.502,2.91,6.502,6.501V32.775z"/>
		
			<linearGradient id="SVGID_4_" gradientUnits="userSpaceOnUse" x1="2450.4434" y1="-784.3135" x2="2463.4473" y2="-784.3135" gradientTransform="matrix(0 1 -1 0 -545.8633 -2327.8994)">
			<stop  offset="0" style="stop-color:#FF8A15"/>
			<stop  offset="1" style="stop-color:#FF8700"/>
		</linearGradient>
		<path fill="url(#SVGID_4_)" d="M225.313,135.547c-3.591,0-6.5-2.912-6.5-6.503l0,0c0-3.591,2.909-6.501,6.501-6.501h26.274
			c3.591,0,6.501,2.91,6.501,6.502l0,0c0,3.59-2.91,6.5-6.502,6.502H225.313z"/>
		
			<linearGradient id="SVGID_5_" gradientUnits="userSpaceOnUse" x1="1452.9941" y1="99.7856" x2="1465.9971" y2="99.7856" gradientTransform="matrix(0.7071 0.7071 -0.7071 0.7071 -755.0536 -1050.8962)">
			<stop  offset="0" style="stop-color:#FF8A15"/>
			<stop  offset="1" style="stop-color:#FF8700"/>
		</linearGradient>
		<path fill="url(#SVGID_5_)" d="M201.714,65.57c-2.539,2.539-6.655,2.537-9.194-0.002l0,0c-2.538-2.539-2.54-6.653,0-9.193
			l18.579-18.579c2.539-2.54,6.655-2.54,9.194,0l0,0c2.539,2.539,2.539,6.655,0,9.195L201.714,65.57z"/>
		<g>
			<g>
				<path fill="#FF8A15" d="M118.676,65.482c3.871,0,7.329,1.753,9.635,4.505c5.291-1.255,10.81-1.92,16.487-1.92
					c18.506,0,35.36,7.061,48.025,18.635c-12.59-22.201-36.435-37.184-63.779-37.184c-11.09,0-21.602,2.469-31.021,6.878
					c4.791,3.143,9.635,6.732,14.448,10.735C114.302,66.088,116.417,65.482,118.676,65.482z"/>
				<path fill="#FF8A15" d="M73.589,139.275c0-0.387,0.017-0.771,0.023-1.155c-4.048-2.086-6.82-6.297-6.82-11.166
					c0-2.107,0.524-4.092,1.443-5.838c-3.991-4.432-7.634-8.925-10.905-13.405c-1.019,4.867-1.557,9.91-1.557,15.079
					c0,0.395,0.008,0.788,0.015,1.182c0.171,10.783,2.673,20.999,7.021,30.169c0.693,1.462,1.439,2.892,2.225,4.298
					c2.104,3.771,4.521,7.342,7.234,10.666c0.136,0.162,0.271,0.327,0.404,0.492c0.499,0.6,1.01,1.188,1.527,1.771
					c7.559,11.234,14.861,23.633,21.545,37.203h32.604C96.952,201.146,73.589,172.94,73.589,139.275z"/>
				<path fill="#FF8A15" d="M112.001,156.211c-8.606-4.551-17.639-10.732-26.514-18.297c-0.866,0.486-1.799,0.865-2.777,1.137
					c0,0.074-0.004,0.148-0.004,0.224c0,31.132,22.911,56.907,52.791,61.396c0.091-13.012,3.672-25.191,9.853-35.654
					C136.414,166.086,124.672,162.909,112.001,156.211z"/>
				<path fill="#FF8A15" d="M152.794,115.417c5.358,10.138,8.466,19.681,8.947,27.667c0.761,0.324,1.48,0.723,2.156,1.182
					c10.729-8.081,23.816-13.197,38.046-14.136c0.241-2.415,0.371-4.862,0.371-7.341c0-2.69-0.148-5.346-0.432-7.96
					c-9.492-22.135-31.476-37.645-57.085-37.645c-4.668,0-9.215,0.522-13.59,1.499c-0.09,1.799-0.554,3.496-1.323,5.018
					C139.579,94.214,147.352,105.121,152.794,115.417z"/>
				<path fill="#FF8A15" d="M193.107,158.367c0.77-1.384,1.498-2.796,2.181-4.235c2.207-4.66,3.938-9.592,5.13-14.73
					c-11.728,1.179-22.486,5.627-31.366,12.411c0.211,0.913,0.333,1.858,0.333,2.835c0,6.938-5.624,12.563-12.563,12.563
					c-0.676,0-1.334-0.068-1.979-0.17c-6.463,9.797-10.234,21.523-10.234,34.138c0,0.062,0.004,0.122,0.004,0.185
					c0.063,0,0.124,0.004,0.187,0.004c8.403,0,16.412-1.678,23.723-4.705c4.914-8.996,10.072-17.425,15.36-25.283
					C187.405,167.402,190.505,163.042,193.107,158.367z"/>
				<path fill="#FF8A15" d="M106.196,79.452c-0.052-0.461-0.083-0.93-0.083-1.406c0-1.713,0.346-3.344,0.966-4.832
					c-5.751-4.818-11.496-9.003-17.042-12.456c-13.665,8.611-24.288,21.61-29.883,37.022c3.95,5.828,8.655,11.814,14.01,17.742
					c1.206-0.548,2.509-0.921,3.882-1.063C83.435,99.971,93.406,87.723,106.196,79.452z"/>
				<path fill="#FF8A15" d="M144.399,156.434c-0.084-0.586-0.142-1.18-0.142-1.787c0-5.791,3.924-10.655,9.255-12.109
					c-0.224-7.091-3.477-16.222-9.223-26.17c-4.989-8.644-11.862-17.904-20.245-26.976c-1.629,0.772-3.445,1.218-5.369,1.218
					c-3.142,0-6.009-1.163-8.211-3.07c-10.616,7.061-18.927,17.306-23.587,29.369c3.055,2.292,5.042,5.932,5.042,10.045
					c0,1.744-0.355,3.404-0.998,4.912c7.462,6.404,14.951,11.754,22.027,15.84C125.591,155.002,136.907,158.284,144.399,156.434z"/>
			</g>
			<path fill="#FF8A15" d="M146.535,216.579h-9.369H99.549c2.349,5.127,4.61,10.407,6.755,15.852h22.74h13.659h9.08
				c0.172-0.437,0.351-0.865,0.523-1.3c1.989-4.985,4.071-9.837,6.232-14.552H146.535z"/>
		</g>
		<g>
			<path fill="#FF8A15" d="M357.919,214.399c-10.245,0-19.803-1.938-28.673-5.806c-8.876-3.869-16.615-9.171-23.225-15.9
				c-6.61-6.728-11.821-14.528-15.632-23.403c-3.813-8.871-5.717-18.311-5.717-28.314s1.904-19.442,5.717-28.317
				c3.811-8.871,9.021-16.673,15.632-23.402c6.609-6.727,14.349-12.028,23.225-15.9c8.87-3.869,18.428-5.806,28.673-5.806
				c9.289,0,18.221,1.697,26.796,5.092c8.577,3.394,16.495,8.306,23.762,14.738l-28.584,25.011
				c-6.909-4.883-14.176-7.325-21.796-7.325c-5.002,0-9.646,0.955-13.934,2.858c-4.288,1.907-7.981,4.528-11.077,7.861
				c-3.097,3.335-5.538,7.176-7.324,11.522c-1.787,4.35-2.681,8.906-2.681,13.668c0,4.885,0.894,9.498,2.681,13.844
				c1.786,4.35,4.228,8.16,7.324,11.434c3.096,3.277,6.759,5.896,10.988,7.861c4.226,1.965,8.842,2.947,13.845,2.947
				c5.717,0,11.044-1.309,15.988-3.93c4.94-2.619,9.26-6.311,12.951-11.076l29.479,23.938c-7.386,9.052-16.108,16.052-26.173,20.991
				C380.099,211.925,369.354,214.399,357.919,214.399z"/>
			<path fill="#FF8A15" d="M479.398,213.684c-8.575,0-16.675-1.639-24.297-4.912c-7.621-3.275-14.264-7.711-19.918-13.31
				c-5.66-5.597-10.126-12.207-13.399-19.829c-3.277-7.621-4.912-15.722-4.912-24.297s1.635-16.643,4.912-24.207
				c3.273-7.563,7.739-14.172,13.399-19.83c5.654-5.656,12.297-10.122,19.918-13.399c7.622-3.274,15.722-4.913,24.297-4.913
				s16.673,1.639,24.296,4.913c7.622,3.277,14.261,7.713,19.92,13.31c5.655,5.6,10.121,12.21,13.398,19.83
				c3.275,7.623,4.912,15.722,4.912,24.297s-1.637,16.676-4.912,24.297c-3.277,7.622-7.743,14.232-13.398,19.829
				c-5.659,5.599-12.298,10.034-19.92,13.31C496.071,212.045,487.974,213.684,479.398,213.684z M479.488,121.323
				c-4.036,0-7.808,0.805-11.312,2.406c-3.503,1.602-6.532,3.771-9.083,6.502c-2.55,2.729-4.568,5.906-6.055,9.529
				c-1.485,3.623-2.225,7.451-2.225,11.486c0,4.039,0.739,7.869,2.225,11.489c1.486,3.624,3.505,6.828,6.055,9.619
				c2.551,2.791,5.58,4.988,9.083,6.591c3.504,1.602,7.275,2.402,11.312,2.402s7.805-0.801,11.308-2.402
				c3.5-1.603,6.529-3.8,9.082-6.591c2.552-2.791,4.542-5.995,5.967-9.619c1.423-3.62,2.137-7.45,2.137-11.489
				c0-4.035-0.714-7.863-2.137-11.486c-1.425-3.623-3.415-6.801-5.967-9.529c-2.553-2.73-5.582-4.9-9.082-6.502
				C487.293,122.127,483.524,121.323,479.488,121.323z"/>
			<path fill="#FF8A15" d="M638.215,122.93h-30.369v87.182H574.26V122.93h-30.37l-2.859-2.857v-27.69h100.045v27.69L638.215,122.93z
				"/>
			<path fill="#FF8A15" d="M706.814,213.684c-8.573,0-16.674-1.639-24.294-4.912c-7.624-3.275-14.265-7.711-19.921-13.31
				c-5.657-5.597-10.124-12.207-13.399-19.829c-3.276-7.621-4.912-15.722-4.912-24.297s1.636-16.643,4.912-24.207
				c3.275-7.563,7.742-14.172,13.399-19.83c5.656-5.656,12.297-10.122,19.921-13.399c7.62-3.274,15.721-4.913,24.294-4.913
				c8.577,0,16.675,1.639,24.298,4.913c7.621,3.277,14.262,7.713,19.919,13.31c5.656,5.6,10.122,12.21,13.399,19.83
				c3.273,7.623,4.912,15.722,4.912,24.297s-1.639,16.676-4.912,24.297c-3.277,7.622-7.743,14.232-13.399,19.829
				c-5.657,5.599-12.298,10.034-19.919,13.31C723.489,212.045,715.392,213.684,706.814,213.684z M706.906,121.323
				c-4.036,0-7.808,0.805-11.312,2.406c-3.503,1.602-6.531,3.771-9.083,6.502c-2.55,2.729-4.568,5.906-6.055,9.529
				c-1.485,3.623-2.225,7.451-2.225,11.486c0,4.039,0.739,7.869,2.225,11.489c1.486,3.624,3.505,6.828,6.055,9.619
				c2.552,2.791,5.58,4.988,9.083,6.591c3.504,1.602,7.275,2.402,11.312,2.402s7.804-0.801,11.307-2.402
				c3.5-1.603,6.53-3.8,9.083-6.591c2.552-2.791,4.542-5.995,5.965-9.619c1.425-3.62,2.14-7.45,2.14-11.489
				c0-4.035-0.715-7.863-2.14-11.486c-1.423-3.623-3.413-6.801-5.965-9.529c-2.553-2.73-5.583-4.9-9.083-6.502
				C714.71,122.127,710.942,121.323,706.906,121.323z"/>
			<path fill="#FF8A15" d="M849.556,210.112l-5.895-15.9h-33.586l-5.896,15.9h-34.657l43.054-117.729h28.584l43.054,117.729H849.556
				z M826.868,142.225l-7.504,22.867h15.007L826.868,142.225z"/>
			<path fill="#FF8A15" d="M984.971,210.112v-55.023l-21.438,35.371c-0.599,0.955-1.372,1.581-2.323,1.877
				c-0.955,0.299-1.786,0.447-2.501,0.447c-0.597,0-1.372-0.148-2.322-0.447c-0.954-0.296-1.728-0.922-2.323-1.877l-21.438-35.371
				v55.023h-33.229V92.382h29.655c1.545,0,2.86,0.714,3.929,2.143l25.728,42.876l25.903-42.876c0.831-1.429,2.082-2.143,3.752-2.143
				h29.654v117.729H984.971z"/>
			<path fill="#FF8A15" d="M1036.419,210.112V92.382h34.479v117.729H1036.419z"/>
		</g>
	</g>
</g>
</svg>
