<?xml version="1.0" encoding="utf-8"?>
<!-- Generator: Adobe Illustrator 16.0.0, SVG Export Plug-In . SVG Version: 6.00 Build 0)  -->
<!DOCTYPE svg PUBLIC "-//W3C//DTD SVG 1.1//EN" "http://www.w3.org/Graphics/SVG/1.1/DTD/svg11.dtd">
<svg version="1.1" id="Layer_1" xmlns="http://www.w3.org/2000/svg" xmlns:xlink="http://www.w3.org/1999/xlink" x="0px" y="0px"
	 width="1602.324px" height="381.658px" viewBox="0 0 1602.324 381.658" enable-background="new 0 0 1602.324 381.658"
	 xml:space="preserve">
<g>
	<g>
		<path fill="#FF8A15" d="M474.239,307.003c-16.208,0-31.33-3.066-45.367-9.188c-14.041-6.121-26.288-14.509-36.746-25.156
			c-10.458-10.645-18.703-22.988-24.731-37.029c-6.034-14.034-9.045-28.972-9.045-44.801s3.011-30.762,9.045-44.802
			c6.029-14.037,14.273-26.38,24.731-37.029c10.458-10.644,22.706-19.031,36.746-25.157c14.037-6.121,29.159-9.187,45.367-9.187
			c14.698,0,28.831,2.686,42.399,8.057c13.568,5.37,26.097,13.143,37.595,23.318l-45.226,39.573
			c-10.931-7.725-22.429-11.589-34.484-11.589c-7.915,0-15.263,1.51-22.048,4.522c-6.783,3.017-12.627,7.164-17.524,12.438
			c-4.902,5.277-8.763,11.355-11.59,18.231c-2.826,6.881-4.24,14.089-4.24,21.624c0,7.729,1.414,15.028,4.24,21.904
			c2.827,6.882,6.688,12.911,11.59,18.092c4.897,5.185,10.693,9.328,17.384,12.438c6.687,3.107,13.99,4.661,21.905,4.661
			c9.045,0,17.476-2.07,25.299-6.218c7.815-4.144,14.649-9.985,20.492-17.524l46.639,37.876
			c-11.687,14.322-25.488,25.396-41.41,33.214C509.334,303.088,492.331,307.003,474.239,307.003z"/>
		<path fill="#FF8A15" d="M666.445,305.872c-13.566,0-26.383-2.594-38.441-7.772c-12.061-5.183-22.569-12.201-31.517-21.059
			c-8.953-8.855-16.019-19.313-21.2-31.374c-5.185-12.059-7.772-24.875-7.772-38.443c0-13.567,2.587-26.332,7.772-38.3
			c5.181-11.965,12.247-22.423,21.2-31.375c8.948-8.948,19.457-16.015,31.517-21.2c12.058-5.181,24.875-7.773,38.441-7.773
			c13.568,0,26.38,2.593,38.443,7.773c12.058,5.185,22.564,12.203,31.517,21.058c8.948,8.86,16.015,19.318,21.2,31.375
			c5.181,12.062,7.772,24.875,7.772,38.442c0,13.568-2.591,26.385-7.772,38.443c-5.185,12.061-12.252,22.519-21.2,31.374
			c-8.953,8.857-19.459,15.876-31.517,21.059C692.825,303.278,680.013,305.872,666.445,305.872z M666.588,159.737
			c-6.387,0-12.354,1.271-17.896,3.806c-5.542,2.535-10.336,5.967-14.373,10.287c-4.035,4.319-7.228,9.345-9.58,15.078
			c-2.349,5.731-3.518,11.788-3.518,18.173c0,6.391,1.169,12.452,3.518,18.182c2.352,5.731,5.545,10.802,9.58,15.217
			c4.037,4.417,8.831,7.894,14.373,10.43c5.542,2.534,11.509,3.8,17.896,3.8c6.386,0,12.349-1.266,17.891-3.8
			c5.538-2.536,10.331-6.013,14.371-10.43c4.037-4.415,7.187-9.485,9.439-15.217c2.252-5.729,3.382-11.791,3.382-18.182
			c0-6.385-1.13-12.441-3.382-18.173c-2.252-5.733-5.402-10.759-9.439-15.078c-4.04-4.32-8.833-7.751-14.371-10.287
			C678.937,161.008,672.974,159.737,666.588,159.737z"/>
		<path fill="#FF8A15" d="M917.728,162.281h-48.053v137.938h-53.139V162.281h-48.052l-4.523-4.523v-43.812h158.29v43.812
			L917.728,162.281z"/>
		<path fill="#FF8A15" d="M1026.269,305.872c-13.565,0-26.385-2.594-38.442-7.772c-12.059-5.183-22.567-12.201-31.518-21.059
			c-8.95-8.855-16.019-19.313-21.197-31.374c-5.188-12.059-7.774-24.875-7.774-38.443c0-13.567,2.587-26.332,7.774-38.3
			c5.179-11.965,12.247-22.423,21.197-31.375c8.95-8.948,19.459-16.015,31.518-21.2c12.058-5.181,24.877-7.773,38.442-7.773
			c13.566,0,26.381,2.593,38.443,7.773c12.058,5.185,22.563,12.203,31.517,21.058c8.946,8.86,16.015,19.318,21.197,31.375
			c5.184,12.062,7.774,24.875,7.774,38.442c0,13.568-2.591,26.385-7.774,38.443c-5.183,12.061-12.251,22.519-21.197,31.374
			c-8.954,8.857-19.459,15.876-31.517,21.059C1052.649,303.278,1039.835,305.872,1026.269,305.872z M1026.412,159.737
			c-6.387,0-12.354,1.271-17.896,3.806c-5.542,2.535-10.338,5.967-14.373,10.287c-4.034,4.319-7.229,9.345-9.581,15.078
			c-2.348,5.731-3.519,11.788-3.519,18.173c0,6.391,1.171,12.452,3.519,18.182c2.352,5.731,5.547,10.802,9.581,15.217
			c4.035,4.417,8.831,7.894,14.373,10.43c5.543,2.534,11.51,3.8,17.896,3.8c6.386,0,12.349-1.266,17.891-3.8
			c5.538-2.536,10.329-6.013,14.368-10.43c4.04-4.415,7.189-9.485,9.439-15.217c2.255-5.729,3.385-11.791,3.385-18.182
			c0-6.385-1.13-12.441-3.385-18.173c-2.25-5.733-5.399-10.759-9.439-15.078c-4.039-4.32-8.83-7.751-14.368-10.287
			C1038.761,161.008,1032.798,159.737,1026.412,159.737z"/>
		<path fill="#FF8A15" d="M1252.113,300.218l-9.329-25.156h-53.139l-9.328,25.156h-54.836l68.121-186.272h45.226l68.12,186.272
			H1252.113z M1216.215,192.808l-11.869,36.18h23.743L1216.215,192.808z"/>
		<path fill="#FF8A15" d="M1466.369,300.218v-87.061l-33.92,55.968c-0.945,1.51-2.172,2.501-3.675,2.967
			c-1.513,0.476-2.826,0.708-3.956,0.708c-0.945,0-2.172-0.232-3.676-0.708c-1.512-0.466-2.734-1.457-3.675-2.967l-33.919-55.968
			v87.061h-52.576V113.946h46.923c2.443,0,4.523,1.131,6.216,3.392l40.707,67.839l40.983-67.839
			c1.314-2.261,3.292-3.392,5.935-3.392h46.923v186.272H1466.369z"/>
		<path fill="#FF8A15" d="M1547.77,300.218V113.946h54.555v186.272H1547.77z"/>
	</g>
	<g>
		<path fill="#FF8A15" d="M131.251,33.31c8.076,0,15.292,3.658,20.104,9.401c11.039-2.62,22.555-4.008,34.399-4.008
			c38.614,0,73.785,14.734,100.209,38.884C259.694,31.262,209.942,0,152.884,0c-23.139,0-45.071,5.149-64.729,14.351
			c9.997,6.557,20.107,14.048,30.147,22.399C122.126,34.573,126.539,33.31,131.251,33.31z"/>
		<path fill="#FF8A15" d="M37.175,187.282c0-0.807,0.035-1.606,0.048-2.41c-8.447-4.352-14.232-13.141-14.232-23.297
			c0-4.4,1.095-8.54,3.011-12.181c-8.328-9.25-15.924-18.625-22.753-27.97C1.123,131.578,0,142.099,0,152.884
			c0,0.824,0.019,1.645,0.03,2.466c0.357,22.5,5.58,43.815,14.654,62.949c1.443,3.05,3.002,6.033,4.641,8.969
			c4.39,7.866,9.432,15.32,15.095,22.253c0.281,0.342,0.563,0.688,0.844,1.028c1.04,1.252,2.105,2.48,3.186,3.698
			c15.772,23.44,31.008,49.309,44.952,77.624h68.035C85.926,316.38,37.175,257.529,37.175,187.282z"/>
		<path fill="#FF8A15" d="M117.323,222.62c-17.958-9.494-36.804-22.392-55.322-38.175c-1.81,1.014-3.753,1.805-5.796,2.371
			c0,0.156-0.007,0.31-0.007,0.467c0,64.959,47.806,118.742,110.151,128.107c0.191-27.148,7.661-52.565,20.559-74.396
			C168.263,243.227,143.764,236.596,117.323,222.62z"/>
		<path fill="#FF8A15" d="M202.44,137.503c11.182,21.153,17.665,41.064,18.67,57.729c1.586,0.676,3.089,1.506,4.498,2.467
			c22.385-16.865,49.696-27.539,79.388-29.497c0.502-5.038,0.772-10.147,0.772-15.317c0-5.613-0.312-11.153-0.902-16.61
			c-19.805-46.186-65.674-78.548-119.112-78.548c-9.741,0-19.226,1.089-28.354,3.127c-0.191,3.755-1.157,7.296-2.762,10.471
			C174.868,93.261,191.085,116.019,202.44,137.503z"/>
		<path fill="#FF8A15" d="M286.557,227.121c1.609-2.892,3.128-5.838,4.549-8.84c4.609-9.725,8.219-20.015,10.705-30.734
			c-24.469,2.459-46.916,11.741-65.448,25.897c0.442,1.901,0.696,3.875,0.696,5.911c0,14.479-11.735,26.215-26.214,26.215
			c-1.411,0-2.783-0.141-4.129-0.355c-13.485,20.441-21.356,44.912-21.356,71.232c0,0.127,0.009,0.254,0.009,0.383
			c0.131,0,0.256,0.01,0.387,0.01c17.536,0,34.247-3.503,49.503-9.817c10.25-18.772,21.015-36.358,32.047-52.756
			C274.66,245.973,281.127,236.873,286.557,227.121z"/>
		<path fill="#FF8A15" d="M105.212,62.459c-0.108-0.964-0.173-1.941-0.173-2.935c0-3.574,0.72-6.978,2.015-10.082
			c-11.998-10.055-23.989-18.786-35.559-25.99C42.98,41.419,20.817,68.543,9.142,100.702c8.245,12.159,18.057,24.651,29.234,37.019
			c2.516-1.144,5.234-1.922,8.1-2.219C57.72,105.272,78.525,79.715,105.212,62.459z"/>
		<path fill="#FF8A15" d="M184.925,223.085c-0.175-1.222-0.295-2.46-0.295-3.73c0-12.083,8.187-22.23,19.312-25.265
			c-0.468-14.796-7.256-33.847-19.245-54.607c-10.412-18.037-24.75-37.359-42.243-56.287c-3.401,1.613-7.189,2.541-11.203,2.541
			c-6.557,0-12.538-2.424-17.133-6.406c-22.152,14.735-39.495,36.111-49.215,61.282c6.373,4.782,10.518,12.379,10.518,20.962
			c0,3.636-0.742,7.1-2.08,10.249c15.567,13.363,31.194,24.526,45.961,33.053C145.677,220.1,169.291,226.948,184.925,223.085z"/>
		<path fill="#FF8A15" d="M189.381,348.583h-19.549H91.342c4.899,10.697,9.617,21.714,14.094,33.075h47.448h28.501h18.947
			c0.359-0.913,0.731-1.808,1.093-2.711c4.15-10.403,8.491-20.524,13.003-30.364H189.381z"/>
	</g>
</g>
</svg>
