<?xml version="1.0" encoding="utf-8"?>
<!-- Generator: Adobe Illustrator 16.0.0, SVG Export Plug-In . SVG Version: 6.00 Build 0)  -->
<!DOCTYPE svg PUBLIC "-//W3C//DTD SVG 1.1//EN" "http://www.w3.org/Graphics/SVG/1.1/DTD/svg11.dtd">
<svg version="1.1" id="Layer_1" xmlns="http://www.w3.org/2000/svg" xmlns:xlink="http://www.w3.org/1999/xlink" x="0px" y="0px"
	 width="449.763px" height="561.395px" viewBox="0 0 449.763 561.395" enable-background="new 0 0 449.763 561.395"
	 xml:space="preserve">
<g>
	<path fill="#FF8A15" d="M193.058,48.998c11.884,0,22.497,5.38,29.574,13.827c16.237-3.854,33.177-5.896,50.599-5.896
		c56.799,0,108.533,21.674,147.401,57.197C381.993,45.985,308.809,0,224.882,0c-34.037,0-66.3,7.576-95.213,21.11
		c14.705,9.644,29.576,20.664,44.344,32.949C179.636,50.854,186.129,48.998,193.058,48.998z"/>
	<path fill="#FF8A15" d="M54.679,275.481c0-1.187,0.051-2.362,0.071-3.545c-12.424-6.402-20.934-19.329-20.934-34.27
		c0-6.472,1.613-12.56,4.429-17.917c-12.247-13.606-23.426-27.395-33.469-41.143C1.649,193.542,0,209.02,0,224.884
		c0,1.211,0.023,2.418,0.042,3.625c0.526,33.099,8.207,64.451,21.554,92.596c2.125,4.485,4.416,8.876,6.826,13.189
		c6.459,11.574,13.875,22.537,22.203,32.735c0.415,0.502,0.83,1.008,1.241,1.513c1.532,1.84,3.1,3.646,4.688,5.438
		c23.199,34.481,45.611,72.531,66.121,114.182h100.075C126.388,465.377,54.679,378.808,54.679,275.481z"/>
	<path fill="#FF8A15" d="M172.572,327.46c-26.413-13.964-54.136-32.936-81.375-56.154c-2.659,1.491-5.521,2.656-8.525,3.488
		c0,0.229-0.01,0.457-0.01,0.687c0,95.551,70.319,174.661,162.025,188.437c0.281-39.933,11.271-77.317,30.24-109.432
		C247.5,357.771,211.464,348.02,172.572,327.46z"/>
	<path fill="#FF8A15" d="M297.777,202.257c16.445,31.117,25.979,60.405,27.46,84.918c2.333,0.993,4.543,2.214,6.618,3.627
		c32.929-24.805,73.098-40.507,116.772-43.388c0.738-7.411,1.136-14.924,1.136-22.53c0-8.258-0.453-16.407-1.322-24.433
		c-29.137-67.938-96.604-115.538-175.21-115.538c-14.326,0-28.28,1.601-41.707,4.599c-0.278,5.521-1.698,10.73-4.065,15.401
		C257.22,137.182,281.073,170.657,297.777,202.257z"/>
	<path fill="#FF8A15" d="M421.503,334.079c2.366-4.251,4.6-8.584,6.693-13c6.778-14.304,12.087-29.44,15.744-45.209
		c-35.994,3.616-69.012,17.271-96.269,38.092c0.648,2.8,1.025,5.702,1.025,8.698c0,21.297-17.263,38.561-38.562,38.561
		c-2.074,0-4.095-0.209-6.073-0.524c-19.838,30.065-31.416,66.063-31.416,104.777c0,0.188,0.014,0.374,0.014,0.566
		c0.194,0,0.381,0.011,0.57,0.011c25.794,0,50.375-5.15,72.817-14.438c15.077-27.613,30.912-53.483,47.141-77.601
		C404.005,361.81,413.52,348.427,421.503,334.079z"/>
	<path fill="#FF8A15" d="M154.757,91.874c-0.158-1.417-0.255-2.855-0.255-4.318c0-5.256,1.059-10.262,2.965-14.83
		c-17.65-14.789-35.285-27.632-52.305-38.227C63.22,60.927,30.62,100.823,13.444,148.126c12.126,17.886,26.562,36.261,43.002,54.453
		c3.701-1.682,7.697-2.826,11.914-3.264C84.9,154.85,115.502,117.257,154.757,91.874z"/>
	<path fill="#FF8A15" d="M272.011,328.145c-0.259-1.796-0.436-3.617-0.436-5.485c0-17.775,12.044-32.701,28.405-37.164
		c-0.686-21.764-10.673-49.788-28.307-80.324c-15.312-26.531-36.407-54.952-62.137-82.794c-4.999,2.371-10.574,3.737-16.479,3.737
		c-9.644,0-18.441-3.566-25.2-9.422c-32.584,21.673-58.092,53.116-72.392,90.141c9.376,7.033,15.473,18.208,15.473,30.833
		c0,5.35-1.091,10.445-3.06,15.074c22.897,19.659,45.884,36.078,67.606,48.618C214.28,323.753,249.013,333.826,272.011,328.145z"/>
	<path fill="#FF8A15" d="M278.565,512.744h-28.756H134.354c7.208,15.734,14.147,31.94,20.731,48.651h69.796h41.922h27.868
		c0.528-1.339,1.076-2.655,1.608-3.99c6.104-15.298,12.493-30.188,19.13-44.661H278.565z"/>
</g>
</svg>
