<?xml version="1.0" encoding="utf-8"?>
<!-- Generator: Adobe Illustrator 16.0.0, SVG Export Plug-In . SVG Version: 6.00 Build 0)  -->
<!DOCTYPE svg PUBLIC "-//W3C//DTD SVG 1.1//EN" "http://www.w3.org/Graphics/SVG/1.1/DTD/svg11.dtd">
<svg version="1.1" id="Layer_1" xmlns="http://www.w3.org/2000/svg" xmlns:xlink="http://www.w3.org/1999/xlink" x="0px" y="0px"
	 width="574.189px" height="564.419px" viewBox="0 0 574.189 564.419" enable-background="new 0 0 574.189 564.419"
	 xml:space="preserve">
<g>
	<g>
		<path fill="#FF8A15" d="M53.491,564.419c-7.482,0-14.462-1.415-20.94-4.24c-6.481-2.825-12.134-6.698-16.961-11.61
			c-4.828-4.914-8.633-10.611-11.417-17.092C1.389,524.997,0,518.103,0,510.796c0-7.306,1.389-14.199,4.173-20.68
			c2.784-6.478,6.588-12.177,11.417-17.091c4.827-4.914,10.48-8.785,16.961-11.612c6.478-2.826,13.458-4.239,20.94-4.239
			c6.784,0,13.308,1.238,19.571,3.717c6.262,2.479,12.046,6.067,17.353,10.764l-20.876,18.267c-5.045-3.565-10.353-5.35-15.917-5.35
			c-3.654,0-7.045,0.697-10.178,2.088c-3.13,1.392-5.827,3.307-8.088,5.741c-2.263,2.435-4.045,5.241-5.35,8.413
			c-1.305,3.179-1.958,6.505-1.958,9.982c0,3.567,0.652,6.938,1.958,10.111c1.305,3.175,3.087,5.959,5.35,8.35
			c2.261,2.395,4.935,4.308,8.023,5.741c3.087,1.436,6.458,2.153,10.112,2.153c4.174,0,8.067-0.956,11.677-2.87
			c3.607-1.913,6.763-4.609,9.458-8.091l21.528,17.483c-5.395,6.612-11.765,11.723-19.114,15.33
			C69.69,562.614,61.842,564.419,53.491,564.419z"/>
		<path fill="#FF8A15" d="M142.208,563.898c-6.261,0-12.178-1.197-17.742-3.59c-5.568-2.389-10.417-5.628-14.548-9.718
			c-4.132-4.089-7.394-8.916-9.786-14.482c-2.392-5.565-3.585-11.482-3.585-17.745c0-6.262,1.194-12.153,3.585-17.677
			c2.392-5.523,5.654-10.351,9.786-14.482c4.131-4.131,8.98-7.393,14.548-9.786c5.564-2.391,11.481-3.588,17.742-3.588
			c6.264,0,12.177,1.197,17.745,3.588c5.566,2.394,10.416,5.634,14.548,9.72c4.131,4.09,7.393,8.916,9.787,14.482
			c2.39,5.568,3.587,11.481,3.587,17.743c0,6.263-1.198,12.18-3.587,17.745c-2.394,5.566-5.656,10.394-9.787,14.482
			c-4.132,4.09-8.982,7.329-14.548,9.718C154.385,562.701,148.472,563.898,142.208,563.898z M142.275,496.445
			c-2.948,0-5.702,0.588-8.26,1.756c-2.559,1.171-4.77,2.756-6.635,4.749c-1.862,1.994-3.334,4.313-4.422,6.959
			c-1.083,2.646-1.623,5.442-1.623,8.39c0,2.95,0.54,5.747,1.623,8.392c1.087,2.646,2.56,4.984,4.422,7.024
			c1.865,2.038,4.077,3.642,6.635,4.813c2.558,1.171,5.312,1.755,8.26,1.755s5.7-0.584,8.259-1.755
			c2.557-1.172,4.768-2.775,6.633-4.813c1.863-2.04,3.317-4.379,4.357-7.024c1.039-2.645,1.561-5.441,1.561-8.392
			c0-2.947-0.522-5.744-1.561-8.39c-1.041-2.646-2.494-4.965-4.357-6.959c-1.865-1.993-4.076-3.578-6.633-4.749
			C147.975,497.033,145.223,496.445,142.275,496.445z"/>
		<path fill="#FF8A15" d="M258.196,497.621h-22.179v63.667h-24.527v-63.667h-22.181l-2.087-2.091v-20.221h73.064v20.221
			L258.196,497.621z"/>
		<path fill="#FF8A15" d="M308.298,563.898c-6.265,0-12.181-1.197-17.746-3.59c-5.565-2.389-10.417-5.628-14.548-9.718
			c-4.131-4.089-7.392-8.916-9.784-14.482c-2.394-5.565-3.587-11.482-3.587-17.745c0-6.262,1.194-12.153,3.587-17.677
			c2.392-5.523,5.653-10.351,9.784-14.482c4.131-4.131,8.982-7.393,14.548-9.786c5.565-2.391,11.481-3.588,17.746-3.588
			c6.26,0,12.177,1.197,17.742,3.588c5.566,2.394,10.415,5.634,14.548,9.72c4.129,4.09,7.394,8.916,9.784,14.482
			c2.392,5.568,3.588,11.481,3.588,17.743c0,6.263-1.196,12.18-3.588,17.745c-2.391,5.566-5.655,10.394-9.784,14.482
			c-4.133,4.09-8.981,7.329-14.548,9.718C320.475,562.701,314.558,563.898,308.298,563.898z M308.364,496.445
			c-2.951,0-5.705,0.588-8.262,1.756c-2.559,1.171-4.771,2.756-6.634,4.749c-1.863,1.994-3.337,4.313-4.424,6.959
			c-1.083,2.646-1.622,5.442-1.622,8.39c0,2.95,0.539,5.747,1.622,8.392c1.087,2.646,2.561,4.984,4.424,7.024
			c1.862,2.038,4.075,3.642,6.634,4.813c2.557,1.171,5.311,1.755,8.262,1.755c2.945,0,5.697-0.584,8.254-1.755
			c2.558-1.172,4.771-2.775,6.633-4.813c1.866-2.04,3.32-4.379,4.358-7.024c1.041-2.645,1.563-5.441,1.563-8.392
			c0-2.947-0.521-5.744-1.563-8.39c-1.038-2.646-2.492-4.965-4.358-6.959c-1.862-1.993-4.075-3.578-6.633-4.749
			C314.062,497.033,311.31,496.445,308.364,496.445z"/>
		<path fill="#FF8A15" d="M412.542,561.288l-4.308-11.61h-24.526l-4.306,11.61h-25.31l31.441-85.979h20.877l31.442,85.979H412.542z
			 M395.973,511.708l-5.48,16.7h10.961L395.973,511.708z"/>
		<path fill="#FF8A15" d="M511.436,561.288v-40.184l-15.654,25.832c-0.436,0.696-1.001,1.154-1.698,1.371
			c-0.696,0.218-1.305,0.325-1.823,0.325c-0.439,0-1.004-0.107-1.698-0.325c-0.696-0.217-1.263-0.675-1.695-1.371l-15.656-25.832
			v40.184h-24.268v-85.979H470.6c1.13,0,2.087,0.521,2.87,1.565l18.79,31.313l18.916-31.313c0.607-1.044,1.522-1.565,2.74-1.565
			h21.657v85.979H511.436z"/>
		<path fill="#FF8A15" d="M549.013,561.288v-85.979h25.177v85.979H549.013z"/>
	</g>
	<g>
		<path fill="#FF8A15" d="M262.777,37.441c9.081,0,17.191,4.111,22.599,10.566c12.407-2.944,25.353-4.505,38.665-4.505
			c43.403,0,82.936,16.563,112.637,43.707C407.151,35.139,351.229,0,287.096,0c-26.009,0-50.663,5.789-72.757,16.131
			c11.237,7.37,22.6,15.79,33.886,25.178C252.521,38.86,257.482,37.441,262.777,37.441z"/>
		<path fill="#FF8A15" d="M157.035,210.509c0-0.907,0.039-1.805,0.054-2.709c-9.494-4.892-15.997-14.771-15.997-26.187
			c0-4.945,1.232-9.598,3.384-13.691c-9.358-10.397-17.901-20.934-25.575-31.439c-2.39,11.413-3.649,23.24-3.649,35.363
			c0,0.926,0.018,1.848,0.032,2.771c0.402,25.292,6.271,49.25,16.471,70.757c1.624,3.428,3.375,6.782,5.216,10.079
			c4.936,8.844,10.602,17.222,16.966,25.015c0.317,0.384,0.634,0.77,0.948,1.156c1.17,1.406,2.369,2.787,3.583,4.156
			c17.728,26.35,34.854,55.425,50.526,87.252h76.472C211.831,355.618,157.035,289.466,157.035,210.509z"/>
		<path fill="#FF8A15" d="M247.123,250.229c-20.184-10.67-41.368-25.167-62.183-42.91c-2.032,1.14-4.219,2.03-6.515,2.666
			c0,0.175-0.008,0.349-0.008,0.525c0,73.015,53.734,133.467,123.811,143.994c0.215-30.515,8.612-59.082,23.108-83.622
			C304.379,273.391,276.842,265.939,247.123,250.229z"/>
		<path fill="#FF8A15" d="M342.798,154.555c12.566,23.778,19.853,46.159,20.983,64.89c1.783,0.759,3.472,1.691,5.058,2.771
			c25.162-18.955,55.857-30.954,89.231-33.155c0.564-5.663,0.868-11.404,0.868-17.216c0-6.31-0.347-12.537-1.011-18.67
			c-22.265-51.915-73.82-88.289-133.887-88.289c-10.947,0-21.61,1.224-31.87,3.515c-0.213,4.219-1.298,8.199-3.106,11.769
			C311.807,104.827,330.033,130.407,342.798,154.555z"/>
		<path fill="#FF8A15" d="M437.344,255.286c1.808-3.248,3.515-6.559,5.114-9.934c5.18-10.93,9.236-22.497,12.031-34.546
			c-27.505,2.763-52.735,13.198-73.563,29.107c0.495,2.14,0.783,4.358,0.783,6.647c0,16.274-13.191,29.466-29.467,29.466
			c-1.585,0-3.129-0.16-4.641-0.401c-15.159,22.975-24.007,50.482-24.007,80.065c0,0.145,0.011,0.286,0.011,0.433
			c0.148,0,0.291,0.009,0.436,0.009c19.711,0,38.494-3.936,55.644-11.033c11.521-21.101,23.621-40.869,36.022-59.299
			C423.973,276.477,431.243,266.25,437.344,255.286z"/>
		<path fill="#FF8A15" d="M233.51,70.205c-0.121-1.083-0.195-2.182-0.195-3.299c0-4.017,0.809-7.842,2.266-11.332
			c-13.487-11.301-26.963-21.115-39.969-29.211c-32.05,20.195-56.962,50.682-70.087,86.828c9.266,13.667,20.297,27.709,32.86,41.61
			c2.828-1.285,5.882-2.16,9.104-2.494C180.128,118.328,203.513,89.602,233.51,70.205z"/>
		<path fill="#FF8A15" d="M323.109,250.752c-0.198-1.373-0.333-2.764-0.333-4.191c0-13.583,9.203-24.989,21.706-28.399
			c-0.524-16.631-8.156-38.045-21.631-61.38c-11.7-20.273-27.82-41.992-47.481-63.267c-3.82,1.812-8.08,2.856-12.593,2.856
			c-7.37,0-14.092-2.725-19.257-7.2c-24.899,16.561-44.391,40.588-55.318,68.881c7.165,5.374,11.824,13.914,11.824,23.561
			c0,4.088-0.833,7.981-2.338,11.519c17.497,15.022,35.062,27.569,51.661,37.151C278.994,247.396,305.535,255.093,323.109,250.752z"
			/>
		<path fill="#FF8A15" d="M328.117,391.813h-21.974h-88.225c5.508,12.023,10.811,24.407,15.842,37.177h53.335h32.034h21.296
			c0.403-1.023,0.822-2.029,1.229-3.049c4.665-11.69,9.547-23.068,14.618-34.128H328.117z"/>
	</g>
</g>
</svg>
