<?xml version="1.0" encoding="utf-8"?>
<!-- Generator: Adobe Illustrator 16.0.0, SVG Export Plug-In . SVG Version: 6.00 Build 0)  -->
<!DOCTYPE svg PUBLIC "-//W3C//DTD SVG 1.1//EN" "http://www.w3.org/Graphics/SVG/1.1/DTD/svg11.dtd">
<svg version="1.1" id="Layer_1" xmlns="http://www.w3.org/2000/svg" xmlns:xlink="http://www.w3.org/1999/xlink" x="0px" y="0px"
	 width="339.491px" height="382.343px" viewBox="0 0 339.491 382.343" enable-background="new 0 0 339.491 382.343"
	 xml:space="preserve">
<g>
	<g>
		<linearGradient id="SVGID_1_" gradientUnits="userSpaceOnUse" x1="161.625" y1="24.5244" x2="177.8638" y2="24.5244">
			<stop  offset="0" style="stop-color:#FF8A15"/>
			<stop  offset="1" style="stop-color:#FF8700"/>
		</linearGradient>
		<path fill="url(#SVGID_1_)" d="M177.864,40.93c0,4.484-3.635,8.119-8.119,8.119l0,0c-4.485,0-8.12-3.635-8.12-8.119V8.119
			c0-4.484,3.635-8.119,8.12-8.119l0,0c4.484,0,8.119,3.635,8.119,8.119V40.93z"/>
		
			<linearGradient id="SVGID_2_" gradientUnits="userSpaceOnUse" x1="2039.7759" y1="-1143.3906" x2="2056.0142" y2="-1143.3906" gradientTransform="matrix(0 1 -1 0 -837.0186 -1886.7432)">
			<stop  offset="0" style="stop-color:#FF8A15"/>
			<stop  offset="1" style="stop-color:#FF8700"/>
		</linearGradient>
		<path fill="url(#SVGID_2_)" d="M289.965,169.271c-4.484,0-8.117-3.635-8.117-8.12l0,0c0-4.483,3.633-8.118,8.117-8.118h32.813
			c4.484-0.001,8.119,3.634,8.119,8.119l0,0c0,4.484-3.635,8.119-8.121,8.12H289.965z"/>
		
			<linearGradient id="SVGID_3_" gradientUnits="userSpaceOnUse" x1="1342.5815" y1="-170.457" x2="1358.8198" y2="-170.457" gradientTransform="matrix(0.7071 0.7071 -0.7071 0.7071 -809.2648 -770.0179)">
			<stop  offset="0" style="stop-color:#FF8A15"/>
			<stop  offset="1" style="stop-color:#FF8700"/>
		</linearGradient>
		<path fill="url(#SVGID_3_)" d="M260.495,81.884c-3.17,3.171-8.311,3.169-11.48-0.002l0,0c-3.17-3.17-3.172-8.309,0-11.481
			L272.215,47.2c3.17-3.172,8.311-3.171,11.48,0l0,0c3.172,3.171,3.172,8.311,0,11.483L260.495,81.884z"/>
		
			<linearGradient id="SVGID_4_" gradientUnits="userSpaceOnUse" x1="-1006.2866" y1="-1853.6289" x2="-990.0483" y2="-1853.6289" gradientTransform="matrix(0 -1 1 0 1886.7476 -837.0176)">
			<stop  offset="0" style="stop-color:#FF8A15"/>
			<stop  offset="1" style="stop-color:#FF8700"/>
		</linearGradient>
		<path fill="url(#SVGID_4_)" d="M49.523,153.031c4.484,0,8.119,3.634,8.119,8.119l0,0c0,4.484-3.635,8.119-8.119,8.119H16.713
			c-4.484,0-8.119-3.635-8.119-8.12l0,0c0-4.483,3.635-8.118,8.119-8.118H49.523z"/>
		
			<linearGradient id="SVGID_5_" gradientUnits="userSpaceOnUse" x1="-811.3096" y1="-672.6694" x2="-795.0708" y2="-672.6694" gradientTransform="matrix(0.7071 -0.7071 0.7071 0.7071 1116.7268 -27.7503)">
			<stop  offset="0" style="stop-color:#FF8A15"/>
			<stop  offset="1" style="stop-color:#FF8700"/>
		</linearGradient>
		<path fill="url(#SVGID_5_)" d="M90.477,70.4c3.172,3.171,3.172,8.311,0,11.482l0,0c-3.17,3.171-8.311,3.171-11.482,0
			L55.793,58.682c-3.17-3.17-3.17-8.311,0.002-11.482l0,0c3.17-3.171,8.311-3.171,11.48,0L90.477,70.4z"/>
		<g>
			<path fill="#FF8A15" d="M156.797,81.774c4.834,0,9.152,2.189,12.031,5.626c6.608-1.567,13.5-2.398,20.59-2.398
				c23.109,0,44.158,8.818,59.973,23.272c-15.721-27.725-45.498-46.436-79.646-46.436c-13.848,0-26.975,3.083-38.741,8.589
				c5.984,3.924,12.033,8.408,18.043,13.406C151.334,82.53,153.977,81.774,156.797,81.774z"/>
			<path fill="#FF8A15" d="M100.492,173.926c0-0.483,0.021-0.961,0.029-1.443c-5.055-2.605-8.518-7.864-8.518-13.943
				c0-2.633,0.656-5.11,1.803-7.29c-4.984-5.536-9.533-11.146-13.619-16.74c-1.271,6.077-1.943,12.375-1.943,18.829
				c0,0.493,0.01,0.984,0.018,1.476c0.215,13.467,3.34,26.224,8.77,37.675c0.865,1.826,1.797,3.611,2.777,5.367
				c2.629,4.709,5.646,9.17,9.035,13.319c0.168,0.204,0.338,0.409,0.504,0.615c0.623,0.749,1.262,1.483,1.908,2.213
				c9.439,14.029,18.559,29.512,26.904,46.458h40.717C129.67,251.19,100.492,215.968,100.492,173.926z"/>
			<path fill="#FF8A15" d="M148.461,195.075c-10.748-5.682-22.027-13.401-33.109-22.848c-1.082,0.607-2.246,1.081-3.469,1.419
				c0,0.093-0.006,0.186-0.006,0.28c0,38.877,28.613,71.066,65.926,76.67c0.113-16.248,4.586-31.459,12.305-44.525
				C178.948,207.408,164.285,203.44,148.461,195.075z"/>
			<path fill="#FF8A15" d="M199.405,144.133c6.691,12.661,10.57,24.577,11.172,34.551c0.951,0.404,1.85,0.901,2.693,1.476
				c13.396-10.092,29.742-16.481,47.512-17.653c0.301-3.016,0.463-6.073,0.463-9.167c0-3.359-0.186-6.675-0.539-9.941
				c-11.854-27.642-39.307-47.01-71.287-47.01c-5.83,0-11.508,0.652-16.971,1.872c-0.113,2.247-0.691,4.366-1.654,6.266
				C182.901,117.655,192.608,131.275,199.405,144.133z"/>
			<path fill="#FF8A15" d="M249.747,197.769c0.963-1.73,1.871-3.493,2.723-5.29c2.758-5.82,4.918-11.979,6.406-18.395
				c-14.645,1.472-28.08,7.027-39.17,15.499c0.264,1.139,0.416,2.32,0.416,3.54c0,8.665-7.023,15.689-15.689,15.689
				c-0.844,0-1.664-0.086-2.471-0.213c-8.07,12.232-12.781,26.879-12.781,42.631c0,0.077,0.006,0.153,0.006,0.23
				c0.078,0,0.154,0.006,0.232,0.006c10.494,0,20.496-2.097,29.625-5.876c6.137-11.235,12.578-21.761,19.182-31.574
				C242.627,209.052,246.497,203.606,249.747,197.769z"/>
			<path fill="#FF8A15" d="M141.213,99.22c-0.064-0.576-0.104-1.162-0.104-1.756c0-2.139,0.43-4.176,1.205-6.034
				c-7.182-6.017-14.357-11.243-21.281-15.554c-17.064,10.753-30.33,26.986-37.318,46.233c4.934,7.277,10.809,14.754,17.496,22.156
				c1.506-0.684,3.133-1.15,4.848-1.328C112.789,124.844,125.24,109.548,141.213,99.22z"/>
			<path fill="#FF8A15" d="M188.92,195.354c-0.104-0.731-0.176-1.473-0.176-2.232c0-7.232,4.898-13.306,11.557-15.121
				c-0.279-8.855-4.342-20.258-11.518-32.682c-6.23-10.795-14.813-22.359-25.282-33.688c-2.035,0.965-4.303,1.521-6.705,1.521
				c-3.924,0-7.504-1.451-10.254-3.833c-13.258,8.818-23.637,21.612-29.455,36.676c3.814,2.862,6.297,7.409,6.297,12.545
				c0,2.177-0.445,4.25-1.246,6.133c9.316,7.999,18.67,14.68,27.508,19.782C165.432,193.567,179.565,197.665,188.92,195.354z"/>
		</g>
		<path fill="#FF8A15" d="M191.588,270.463h-11.701H132.91c2.934,6.402,5.758,12.996,8.436,19.796h28.399h17.057h11.34
			c0.215-0.545,0.438-1.08,0.654-1.623c2.484-6.226,5.084-12.284,7.783-18.173H191.588z"/>
	</g>
	<g>
		<path fill="#FF8A15" d="M31.627,382.343c-4.424,0-8.551-0.836-12.381-2.506c-3.832-1.672-7.176-3.961-10.029-6.866
			s-5.104-6.273-6.75-10.105C0.82,359.034,0,354.958,0,350.639s0.82-8.396,2.467-12.228c1.646-3.83,3.896-7.199,6.75-10.104
			s6.197-5.194,10.029-6.866c3.83-1.67,7.957-2.506,12.381-2.506c4.01,0,7.867,0.732,11.57,2.197
			c3.703,1.467,7.123,3.588,10.26,6.365l-12.342,10.799c-2.984-2.107-6.121-3.162-9.412-3.162c-2.16,0-4.164,0.412-6.018,1.234
			c-1.85,0.822-3.445,1.955-4.781,3.395c-1.338,1.439-2.393,3.098-3.164,4.975c-0.771,1.878-1.156,3.846-1.156,5.901
			c0,2.108,0.385,4.102,1.156,5.978c0.771,1.879,1.826,3.523,3.164,4.938c1.336,1.416,2.918,2.546,4.744,3.395
			c1.824,0.849,3.818,1.272,5.979,1.272c2.467,0,4.77-0.565,6.904-1.696c2.133-1.131,3.998-2.726,5.592-4.783l12.729,10.336
			c-3.189,3.91-6.957,6.932-11.301,9.064C41.203,381.275,36.564,382.343,31.627,382.343z"/>
		<path fill="#FF8A15" d="M84.08,382.034c-3.701,0-7.199-0.707-10.49-2.121s-6.158-3.329-8.602-5.746
			c-2.443-2.418-4.371-5.271-5.785-8.563s-2.121-6.789-2.121-10.492c0-3.702,0.707-7.186,2.121-10.452
			c1.414-3.265,3.342-6.119,5.785-8.563c2.443-2.442,5.311-4.37,8.602-5.786c3.291-1.413,6.789-2.121,10.49-2.121
			c3.703,0,7.199,0.708,10.492,2.121c3.291,1.416,6.158,3.331,8.602,5.748c2.441,2.418,4.371,5.271,5.785,8.563
			s2.121,6.788,2.121,10.49c0,3.703-0.707,7.201-2.121,10.492s-3.344,6.145-5.785,8.563c-2.443,2.417-5.311,4.332-8.602,5.746
			C91.279,381.327,87.783,382.034,84.08,382.034z M84.119,342.153c-1.742,0-3.371,0.348-4.883,1.039
			c-1.514,0.691-2.82,1.628-3.924,2.807c-1.1,1.18-1.971,2.551-2.613,4.115c-0.641,1.564-0.961,3.217-0.961,4.959
			c0,1.745,0.32,3.398,0.961,4.962c0.643,1.565,1.514,2.948,2.613,4.153c1.104,1.205,2.41,2.154,3.924,2.846
			c1.512,0.692,3.141,1.038,4.883,1.038c1.744,0,3.371-0.346,4.883-1.038c1.512-0.691,2.82-1.641,3.922-2.846
			s1.961-2.588,2.576-4.153c0.615-1.563,0.924-3.217,0.924-4.962c0-1.742-0.309-3.395-0.924-4.959s-1.475-2.936-2.576-4.115
			c-1.102-1.179-2.41-2.115-3.922-2.807S85.863,342.153,84.119,342.153z"/>
		<path fill="#FF8A15" d="M152.658,342.848h-13.113v37.644h-14.502v-37.644h-13.115l-1.234-1.235v-11.955h43.199v11.955
			L152.658,342.848z"/>
		<path fill="#FF8A15" d="M182.28,382.034c-3.701,0-7.199-0.707-10.49-2.121c-3.292-1.414-6.161-3.329-8.602-5.746
			c-2.443-2.418-4.371-5.271-5.785-8.563c-1.416-3.291-2.121-6.789-2.121-10.492c0-3.702,0.705-7.186,2.121-10.452
			c1.414-3.265,3.342-6.119,5.785-8.563c2.441-2.442,5.311-4.37,8.602-5.786c3.291-1.413,6.789-2.121,10.49-2.121
			c3.703,0,7.199,0.708,10.492,2.121c3.291,1.416,6.158,3.331,8.602,5.748c2.441,2.418,4.369,5.271,5.785,8.563
			c1.414,3.291,2.121,6.788,2.121,10.49c0,3.703-0.707,7.201-2.121,10.492c-1.416,3.291-3.344,6.145-5.785,8.563
			c-2.443,2.417-5.311,4.332-8.602,5.746C189.479,381.327,185.983,382.034,182.28,382.034z M182.319,342.153
			c-1.742,0-3.371,0.348-4.883,1.039c-1.514,0.691-2.822,1.628-3.924,2.807c-1.102,1.18-1.973,2.551-2.613,4.115
			c-0.643,1.564-0.961,3.217-0.961,4.959c0,1.745,0.318,3.398,0.961,4.962c0.641,1.565,1.512,2.948,2.613,4.153
			s2.41,2.154,3.924,2.846c1.512,0.692,3.141,1.038,4.883,1.038s3.371-0.346,4.883-1.038c1.512-0.691,2.82-1.641,3.922-2.846
			s1.961-2.588,2.576-4.153c0.615-1.563,0.924-3.217,0.924-4.962c0-1.742-0.309-3.395-0.924-4.959s-1.475-2.936-2.576-4.115
			c-1.102-1.179-2.41-2.115-3.922-2.807S184.061,342.153,182.319,342.153z"/>
		<path fill="#FF8A15" d="M243.915,380.491l-2.545-6.865h-14.502l-2.545,6.865h-14.967l18.592-50.834h12.342l18.592,50.834H243.915z
			 M234.118,351.179l-3.238,9.873h6.479L234.118,351.179z"/>
		<path fill="#FF8A15" d="M302.387,380.491v-23.759l-9.258,15.274c-0.258,0.412-0.592,0.682-1.002,0.81
			c-0.412,0.129-0.771,0.192-1.08,0.192c-0.258,0-0.592-0.063-1.002-0.192c-0.412-0.128-0.748-0.397-1.004-0.81l-9.258-15.274
			v23.759h-14.348v-50.834h12.807c0.666,0,1.234,0.309,1.695,0.925l11.109,18.515l11.186-18.515
			c0.359-0.616,0.898-0.925,1.619-0.925h12.805v50.834H302.387z"/>
		<path fill="#FF8A15" d="M324.602,380.491v-50.834h14.889v50.834H324.602z"/>
	</g>
</g>
</svg>
